<svg xmlns="http://www.w3.org/2000/svg" width="512" height="512" viewBox="0 0 512 512">
<rect width="512" height="512" fill="#2F3335"/>
<g transform="translate(0,512) scale(0.1,-0.1)" fill="#C3C3C3" stroke="none">
<path d="M1325 4164 c-156 -23 -375 -75 -514 -120 -508 -166 -766 -431 -737
-758 18 -213 152 -405 281 -406 50 0 129 44 204 115 l71 67 -40 46 c-109 123
-146 322 -84 444 63 125 223 238 449 317 224 79 412 112 649 112 239 -1 425
-33 594 -103 143 -59 283 -173 332 -268 59 -116 72 -288 32 -420 -90 -292
-394 -581 -727 -692 -63 -21 -88 -23 -245 -22 -152 0 -184 3 -240 22 -35 11
-66 20 -68 18 -7 -7 -44 -175 -63 -286 -27 -158 -30 -287 -6 -323 47 -73 168
-119 326 -125 191 -7 341 27 536 124 426 211 785 657 896 1114 33 136 33 351
1 464 -41 144 -103 246 -209 348 -188 178 -510 304 -868 338 -151 14 -461 11
-570 -6z"/>
<path d="M4365 3775 c-76 -31 -222 -130 -349 -236 -415 -347 -842 -875 -1072
-1327 -137 -268 -190 -491 -164 -681 35 -252 159 -363 405 -364 101 0 152 17
159 56 3 12 10 76 16 142 13 129 29 226 62 373 21 93 21 94 96 174 192 203
569 438 773 480 32 6 61 9 65 5 4 -4 -34 -60 -83 -124 -262 -342 -350 -552
-323 -769 31 -252 147 -353 401 -354 215 0 436 110 662 330 l107 105 0 168 c0
92 -2 167 -5 167 -3 0 -26 -16 -52 -36 -100 -77 -255 -133 -327 -120 -60 11
-95 66 -103 164 -5 59 -1 80 30 172 19 58 69 177 111 266 88 187 109 257 95
308 -5 20 -20 41 -32 48 -35 21 -207 14 -312 -11 -338 -81 -651 -234 -892
-439 -35 -29 -63 -48 -63 -42 0 10 73 195 137 350 12 31 23 39 81 60 239 85
599 321 765 500 127 138 177 235 180 354 1 58 -3 81 -24 126 -76 160 -198 215
-344 155z m24 -271 c24 -31 44 -122 35 -160 -26 -111 -141 -234 -345 -372 -72
-49 -237 -137 -244 -130 -1 1 31 64 73 138 127 227 278 439 367 512 54 45 85
48 114 12z"/>
<path d="M1413 3711 c-116 -92 -253 -257 -398 -476 -168 -253 -319 -529 -697
-1270 -118 -231 -238 -457 -266 -503 -50 -81 -52 -86 -52 -158 l0 -74 53 -30
c111 -64 233 -96 402 -107 l103 -6 43 44 c105 104 185 312 419 1079 201 659
291 914 399 1130 73 145 122 221 184 287 27 29 46 57 42 63 -13 21 -105 60
-144 60 -31 0 -50 -9 -88 -39z"/>
</g>
</svg>
